<?xml version="1.0" standalone="no"?>
<!DOCTYPE svg PUBLIC "-//W3C//DTD SVG 20010904//EN"
 "http://www.w3.org/TR/2001/REC-SVG-20010904/DTD/svg10.dtd">
<svg version="1.0" xmlns="http://www.w3.org/2000/svg"
 width="200.000000pt" height="200.000000pt" viewBox="0 0 200.000000 200.000000"
 preserveAspectRatio="xMidYMid meet">
<metadata>
Created by potrace 1.11, written by Peter Selinger 2001-2013
</metadata>
<g transform="translate(0.000000,200.000000) scale(0.100000,-0.100000)"
fill="#000000" stroke="none">
<path d="M1505 1685 c-154 -90 -281 -168 -283 -173 -2 -6 37 -23 85 -39 l88
-29 34 -97 c18 -53 36 -97 40 -97 4 0 28 29 54 64 l48 65 66 -30 c37 -16 70
-26 74 -22 7 9 89 465 89 501 0 12 -3 22 -7 21 -5 0 -134 -74 -288 -164z m226
-112 c-20 -111 -39 -204 -42 -208 -6 -5 -147 50 -162 65 -5 4 47 84 114 179
67 94 123 170 125 168 1 -1 -15 -93 -35 -204z m-186 37 l-140 -140 -68 23 -67
22 202 117 c112 65 205 118 208 118 3 0 -58 -63 -135 -140z m84 28 c-13 -18
-51 -71 -85 -118 -47 -66 -63 -97 -69 -135 l-7 -50 -19 45 c-10 25 -18 52 -18
60 -1 12 205 230 217 230 2 0 -7 -15 -19 -32z m-94 -247 c3 -5 -6 -22 -19 -38
l-25 -28 5 25 c9 42 13 50 23 50 5 0 12 -4 16 -9z"/>
<path d="M1075 1241 c-6 -11 32 -41 52 -41 21 0 15 16 -12 34 -28 19 -32 19
-40 7z"/>
<path d="M1331 1221 c-7 -5 -10 -14 -7 -20 8 -13 46 3 46 19 0 12 -20 13 -39
1z"/>
<path d="M1182 1188 c7 -20 68 -23 68 -4 0 12 -10 16 -36 16 -24 0 -34 -4 -32
-12z"/>
<path d="M1022 1122 c-10 -10 -84 -134 -166 -276 l-149 -258 -60 104 c-32 56
-70 120 -83 140 -28 44 -66 58 -103 37 -30 -17 -360 -582 -361 -617 0 -13 11
-34 25 -47 24 -25 26 -25 208 -25 144 0 190 -3 214 -15 27 -13 98 -15 534 -11
277 2 566 8 642 13 129 7 140 10 158 32 10 13 19 33 19 45 0 26 -203 384 -232
409 -46 39 -90 15 -143 -79 -20 -36 -41 -62 -45 -57 -5 4 -83 139 -175 298
-92 160 -174 298 -183 308 -20 22 -77 22 -100 -1z m142 -222 c47 -82 86 -156
86 -164 0 -31 -22 -26 -78 18 -82 65 -97 62 -168 -24 -32 -38 -60 -70 -62 -70
-3 0 -40 24 -70 46 -5 3 192 344 199 344 3 0 45 -67 93 -150z m-585 -251 l82
-140 -72 -125 -71 -124 -164 0 c-90 0 -164 2 -164 5 0 3 50 92 111 198 62 105
129 222 151 260 21 37 40 67 42 67 2 0 41 -63 85 -141z m578 16 c62 -51 79
-54 117 -24 15 12 28 20 30 18 1 -2 55 -95 119 -206 l116 -203 -29 0 c-17 0
-30 -4 -30 -10 0 -6 -137 -10 -390 -10 -333 0 -390 2 -390 14 0 10 -14 16 -44
18 l-44 3 104 180 c57 99 108 181 113 183 5 2 28 -9 50 -24 65 -42 87 -37 155
40 32 36 61 66 63 66 2 0 29 -20 60 -45z m562 -244 c50 -87 91 -161 91 -165 0
-3 -40 -6 -90 -6 l-89 0 -42 73 c-23 39 -51 87 -62 106 -20 33 -20 33 -1 27
16 -5 27 6 57 59 21 36 39 65 41 65 2 0 44 -71 95 -159z"/>
</g>
</svg>
